<svg id="Capa_1" data-name="Capa 1" xmlns="http://www.w3.org/2000/svg" viewBox="0 0 2305.41 2151.17"><defs><style>.cls-1,.cls-2,.cls-3{fill:#f3f6fa;stroke:#000;}.cls-1{stroke-linejoin:round;stroke-width:43.2px;}.cls-2,.cls-3{stroke-miterlimit:10;}.cls-2{stroke-width:25.92px;fill-rule:evenodd;}.cls-3{stroke-width:40.11px;}</style></defs><title>Rocket Music B&amp;amp;N</title><path class="cls-1" d="M595,122.74l734.62,1.74q230.28-1.73,343.88,73.53,138.74,92.25,138.7,317.44,0,370.77-343.91,420.09V939q151.65,37.77,153.35,251.13,0,109.27-8.16,280,0,114.47,48.48,198.07H1259.38q-28.2-30.57-28.19-124.55,11.55-157.12,11.55-257.77,0-203.27-195.34-203.27H786.93l-113.6,548.11H281.23L595,122.74ZM1216,437H927.33L852.05,800.87h312.34q261.89,0,263.57-206.71Q1428,437,1216,437Z" transform="translate(-98.92 -101.15)"/><polygon class="cls-2" points="84.74 2027.43 16.82 2027.43 117.81 1644.13 242.26 1644.13 206.2 1916.49 207.24 1916.49 314.66 1644.13 436.58 1644.13 335.58 2027.43 259.11 2027.43 345.36 1700.11 344.33 1700.11 209.22 2027.43 134.63 2027.43 171.89 1700.11 170.99 1700.11 84.74 2027.43"/><path class="cls-2" d="M713.45,2019.28c-23.48,81.24-59.27,116.8-138.37,116.8-104.56,0-86.36-77-73.61-125.38l69.94-265.42h84.77l-72.77,276.14c-8.06,30.63-14,53.33,7.83,53.33,22.93,0,28.91-22.7,37-53.33L701,1745.28h84.66l-72.19,274Z" transform="translate(-98.92 -101.15)"/><path class="cls-2" d="M911.29,1882.46l14.15-53.72c5-18.82,2-29.58-14.76-29.58-18.24,0-25.21,10.76-30.17,29.58-17,64.58,107.59,83.37,76.37,201.87-19,72.07-64.55,105.47-135.47,105.47-54.06,0-101.4-19.38-83.94-85.63l18.71-71h84.63l-17.44,66.19c-6,22.64-1.08,29.16,14.69,29.16,13.78,0,24.28-6.52,30.24-29.16,22.84-86.66-106.3-88.28-73.69-212,18.32-69.51,68.54-95.83,133.79-95.83,57.16,0,100.25,20.49,83.38,84.52l-15.87,60.22H911.28v0Z" transform="translate(-98.92 -101.15)"/><polygon class="cls-2" points="968.08 1644.13 1052.76 1644.13 951.76 2027.43 867.09 2027.43 968.08 1644.13"/><path class="cls-2" d="M1336.93,1979.4l-13.35,50.68c-18.85,71.53-64.17,106-135.52,106-56.15,0-100.21-24.25-77.09-112l46-174.39c23.13-87.81,79.95-112,136.1-112,61.67,0,102.49,19.37,80.63,102.3l-11.06,42h-84.72l13.91-52.77c4.09-15.54,3.39-30.08-15-30.08-17.37,0-25.8,14.54-29.9,30.08l-56.74,215.35c-4.11,15.6-3.36,30.16,14,30.16,18.34,0,26.73-14.58,30.83-30.16l17.72-65.18h84.18Z" transform="translate(-98.92 -101.15)"/><g id="layer1"><path id="path2159" class="cls-3" d="M1841.39,1867.74c-280.06-160.24-451.67,4.35-407,211.5,28.68,132.94,276.75,256.5,482.8,17.69,30-258,69.3-517.22,99.3-775.21,316.71,279.22,215.56,448.15,150.08,642.69,134.62-55.48,345.48-300.4,115.11-645.86-109-153-98.78-45-204.37-350.24l-111.68-18.44C1921.27,1264.44,1885.77,1553.16,1841.39,1867.74Z" transform="translate(-98.92 -101.15)"/></g></svg>